<?xml version="1.0" encoding="utf-8"?>
<!-- Generator: Adobe Illustrator 25.4.1, SVG Export Plug-In . SVG Version: 6.00 Build 0)  -->
<svg version="1.1" id="Layer_1" xmlns="http://www.w3.org/2000/svg" xmlns:xlink="http://www.w3.org/1999/xlink" x="0px" y="0px"
	 viewBox="0 0 1000 1000" style="enable-background:new 0 0 1000 1000;" xml:space="preserve">
<style type="text/css">
	.st0{fill:#77B900;}
</style>
<g>
	<path id="XMLID_00000005228261094984642700000017835090108396009626_" class="st0" d="M845.12,192.33l-0.14,0.04
		c-44.29-38.97-108.84-53.1-167.07-36.35l-73.09,21.03c-32.56,9.37-66.18,14.19-100.02,15.88c-52.2,2.61-110.71,16.68-151.75,37.67
		c-127.77,65.48-182.28,181.8-191.61,306.47c-10.71,143.63,46.31,347.52,236.24,447.95C259.2,945.81,71.02,808.3,65.07,543.05
		c-4.92-217.4,147.08-444.3,433.21-461.07c17.12-0.96,35.21-0.97,53.79,0.21c-39.85-21.93-99.54-36.67-149.73-34.35
		c-51.42,2.37-94.58,9.97-166.84,40.85c43.53-38.46,105.46-62.33,166.26-69.88c118-14.69,234.82,12.98,332.63,79.03
		C777.87,127.27,812.42,153.44,845.12,192.33z"/>
	<path id="XMLID_00000029727781414612585780000003270202077295645856_" class="st0" d="M933.69,556.59
		c-0.49-10.11-1.12-20.31-1.87-30.6H603.83v76.5h153.35c0.22,12.5,0.35,24.86,0.27,36.7c-0.24,34.53-28.42,62.32-62.95,62.32H496.44
		c-34.53,0-62.72-27.8-62.95-62.32c-0.39-56.32,2.71-123.27,8.31-171.76c3.67-31.8,30.55-55.76,62.56-55.76h182.22
		c32.01,0,58.88,23.96,62.56,55.76c0.24,2.09,0.47,4.26,0.7,6.41h176.88c-2.48-20.14-5.59-40.58-9.58-61.36
		c-14.01-72.99-77.38-126.08-151.71-126.08H425.51c-74.33,0-137.7,53.09-151.71,126.08c-9.57,49.86-14.33,97.9-16.56,144.11
		c-2.46,51.1-1.37,93.87,1.58,129.2c6.68,79.8,73.65,140.99,153.73,140.99h365.82c80.08,0,147.05-61.19,153.73-140.99
		C935.06,650.46,936.15,607.69,933.69,556.59z"/>
</g>
</svg>
