<?xml version="1.0" encoding="utf-8"?>
<!-- Generator: Adobe Illustrator 25.4.1, SVG Export Plug-In . SVG Version: 6.00 Build 0)  -->
<svg version="1.1" xmlns="http://www.w3.org/2000/svg" xmlns:xlink="http://www.w3.org/1999/xlink" x="0px" y="0px"
	 viewBox="0 0 1218.46 1218.46" style="enable-background:new 0 0 1218.46 1218.46;" xml:space="preserve">
<style type="text/css">
	.st0{fill:none;stroke:#79BB00;stroke-width:26.892;stroke-miterlimit:10;}
	.st1{fill:none;stroke:#79BB00;stroke-width:19.9521;stroke-miterlimit:10;}
	.st2{fill:none;stroke:#79BB00;stroke-width:25.2277;stroke-miterlimit:10;}
	.st3{fill:none;stroke:#79BB00;stroke-width:18.7173;stroke-miterlimit:10;}
	.st4{fill:none;stroke:#79BB00;stroke-width:20.1822;stroke-miterlimit:10;}
	.st5{fill:none;stroke:#79BB00;stroke-width:21.0163;stroke-miterlimit:10;}
	.st6{fill:none;stroke:#79BB00;stroke-width:26.2703;stroke-miterlimit:10;}
	.st7{fill:none;stroke:#79BB00;stroke-width:26.2456;stroke-miterlimit:10;}
	.st8{fill:none;stroke:#79BB00;stroke-width:20.9965;stroke-miterlimit:10;}
	.st9{fill:#77B900;}
	.st10{fill:none;stroke:#79BB00;stroke-width:31.6466;stroke-miterlimit:10;}
	.st11{fill:none;stroke:#79BB00;stroke-width:20.5054;stroke-miterlimit:10;}
	.st12{fill:none;stroke:#79BB00;stroke-width:22.5864;stroke-miterlimit:10;}
</style>
<g id="background">
</g>
<g id="Objects">
	<g>
		<path class="st0" d="M-2295.52,804.38l-117.51-158.08c-3.78-5.09-9.69-8.08-15.96-8.08h-167.99c-6.46,0-12.53,3.18-16.28,8.53
			l-96,136.82c-24.57,35.02-70.37,47.14-108.44,28.43c-40.83-20.07-71.94-55.91-71.94-101.67V407.32
			c0-72.06,57.38-130.47,128.16-130.47h502.03c70.78,0,128.16,58.42,128.16,130.47v303.01c0,50.65-32.79,94.56-76.85,116.18
			C-2238.55,841.44-2275.15,831.78-2295.52,804.38z"/>
		<path class="st0" d="M-2712.15,88.61c36.19,0,72.39,0,108.58,0c15.66,0,25.59,1.38,39.32,8.42c35.71,18.3,56.81,52.88,56.54,93.15
			c-0.01,1.1-0.03,2.21-0.06,3.31v88.74"/>
		<line class="st0" x1="-2717.53" y1="405.93" x2="-2717.53" y2="572.66"/>
		<line class="st0" x1="-2634.16" y1="489.3" x2="-2800.9" y2="489.3"/>
		<line class="st1" x1="-2354.49" y1="440.89" x2="-2354.49" y2="564.59"/>
		<line class="st1" x1="-2292.64" y1="502.74" x2="-2416.34" y2="502.74"/>
		<line class="st1" x1="-2268.43" y1="344.08" x2="-2268.43" y2="467.78"/>
		<line class="st1" x1="-2206.58" y1="405.93" x2="-2330.29" y2="405.93"/>
	</g>
	<g>
		<g>
			<path class="st2" d="M-2267.16,1850.01l-110.23-148.29c-3.55-4.77-9.09-7.58-14.97-7.58h-157.6c-6.06,0-11.75,2.98-15.28,8
				l-90.06,128.36c-23.05,32.85-66.02,44.22-101.73,26.67c-38.31-18.82-67.49-52.45-67.49-95.38v-284.26
				c0-67.6,53.83-122.4,120.23-122.4h470.96c66.4,0,120.23,54.8,120.23,122.4v284.26c0,47.51-30.76,88.71-72.1,108.99
				C-2213.71,1884.78-2248.04,1875.72-2267.16,1850.01z"/>
			<line class="st2" x1="-2663.05" y1="1476.23" x2="-2663.05" y2="1632.64"/>
			<line class="st2" x1="-2584.85" y1="1554.43" x2="-2741.26" y2="1554.43"/>
			<line class="st3" x1="-2322.48" y1="1509.02" x2="-2322.48" y2="1625.07"/>
			<line class="st3" x1="-2264.45" y1="1567.05" x2="-2380.5" y2="1567.05"/>
			<line class="st3" x1="-2241.75" y1="1418.2" x2="-2241.75" y2="1534.25"/>
			<line class="st3" x1="-2183.73" y1="1476.23" x2="-2299.77" y2="1476.23"/>
		</g>
		<path class="st4" d="M-2050.02,1292.07h-557.53v-100.48c0-25.32,20.52-45.84,45.84-45.84h465.84c25.32,0,45.84,20.52,45.84,45.84
			V1292.07z"/>
		<line class="st4" x1="-2607.55" y1="1292.07" x2="-2607.55" y2="1324.86"/>
		<line class="st4" x1="-2050.02" y1="1292.07" x2="-2050.02" y2="1506.5"/>
	</g>
	<g>
		<g>
			<path class="st5" d="M-2856.03,2279.9h-605.77v-109.17c0-27.51,22.3-49.81,49.81-49.81h506.15c27.51,0,49.81,22.3,49.81,49.81
				V2279.9z"/>
			<line class="st5" x1="-3461.8" y1="2279.9" x2="-3461.8" y2="2315.53"/>
			<polyline class="st5" points="-2856.03,2279.9 -2856.03,2523.4 -3198.32,2523.4 			"/>
		</g>
		<path class="st6" d="M-3290.08,2854.4h-334.01c-14.41,0-26.08-11.68-26.08-26.08v-334.01c0-14.41,11.68-26.08,26.08-26.08h334.01
			c14.41,0,26.08,11.68,26.08,26.08v334.01C-3264,2842.72-3275.68,2854.4-3290.08,2854.4z"/>
		<line class="st6" x1="-3458.4" y1="2465.6" x2="-3458.4" y2="2851.77"/>
		<line class="st6" x1="-3265.31" y1="2658.69" x2="-3651.49" y2="2658.69"/>
		<polyline class="st5" points="-3327.05,2323.74 -3455.77,2468.23 -3595.01,2323.74 		"/>
	</g>
	<g>
		<path class="st7" d="M-5689.41,566.51v320.44c0,37.55-30.44,67.99-67.99,67.99h-268.2c-37.55,0-67.99-30.44-67.99-67.99V377.29
			c0-37.55,30.44-67.99,67.99-67.99h212.84"/>
		<line class="st8" x1="-6093.6" y1="802.72" x2="-5689.41" y2="802.72"/>
		<path class="st7" d="M-5715.66,220.06c42.24,0,71.51,1.43,105.94,27.27c43.5,32.65,62.03,84.93,62.03,138.07v107.61"/>
		<path class="st7" d="M-5752.4,335.55c27.72,0,46.93,0.94,69.52,17.9c28.55,21.43,40.71,55.74,40.71,90.61v70.62"/>
		<g>
			<g>
				<g>
					<path class="st9" d="M-5791.77,634.23c0,38.34-25.23,67.12-70.17,75c-8.09,1.42-16.81,2.16-26.15,2.16c-0.73,0-1.47,0-2.2-0.01
						c-27.36-0.35-52.55-7.18-70.17-17.55l11.71-35.65c13.19,8.63,36.07,17.74,58.47,18.56c1.09,0.04,2.18,0.06,3.26,0.06
						c9.86,0,18.2-1.43,25.08-3.97c16.88-6.24,24.94-19.22,24.94-34.34c0-16.49-7.24-27.48-24.94-37.24
						c-6.28-3.47-13.89-6.78-22.95-10.13c-1.84-0.65-3.63-1.32-5.39-2c-42.6-16.53-62.72-41.26-62.72-70.9
						c0-34.49,23.15-63.84,62.72-72.77c8.05-1.82,16.79-2.79,26.15-2.79c0.74,0,1.47,0.01,2.2,0.02
						c25.16,0.4,47.16,7.67,61.13,15.95l-11.71,34.06c-9.65-6.09-27.04-14.12-49.42-14.85c-1.08-0.04-2.16-0.05-3.26-0.05
						c-10.01,0-18.43,2.09-25.08,5.67c-11.74,6.3-18.02,17.23-18.02,29.45c0,13.05,5.8,21.7,18.02,29.39
						c7.19,4.52,16.59,8.71,28.35,13.26c0.85,0.33,1.71,0.66,2.59,0.99C-5814.66,573.56-5791.77,595.91-5791.77,634.23z"/>
				</g>
				<path class="st9" d="M-5861.95,411.66v31.01c-0.73-0.01-1.46-0.02-2.2-0.02c-9.36,0-18.09,0.97-26.15,2.79v-33.79H-5861.95z"/>
				<path class="st9" d="M-5888.09,711.39c9.33,0,18.06-0.74,26.15-2.16v33.15h-28.35v-31.01
					C-5889.56,711.39-5888.83,711.39-5888.09,711.39z"/>
			</g>
		</g>
	</g>
	<g>
		<g>
			<g>
				<path class="st9" d="M-4890.11,1428.77c0-45,0-90.01,0-135.01c0.91,0.27,1.85,0.46,2.72,0.81
					c39.16,15.8,78.32,31.6,117.46,47.46c1.76,0.71,3.07,0.71,4.79-0.27c18.52-10.6,38.43-15.27,59.75-13.45
					c2.58,0.22,4.12-0.41,5.66-2.62c28.57-41.11,57.25-82.15,85.82-123.26c1.06-1.53,1.73-3.65,1.79-5.52
					c0.47-14.4,2.73-28.47,7.37-42.13c8.94-26.33,25.02-47.64,46.27-65.19c18.9-15.61,40.4-25.73,64.7-29.63
					c5.38-0.86,10.81-1.46,16.22-2.18c6.15,0,12.31,0,18.46,0c0.93,0.17,1.86,0.44,2.8,0.5c12.04,0.79,23.78,3.12,35.19,7.04
					c26.08,8.96,47.19,24.98,64.66,46.01c15.67,18.86,25.76,40.36,29.62,64.66c0.86,5.39,1.44,10.82,2.15,16.23
					c0,6.15,0,12.31,0,18.46c-0.18,0.93-0.4,1.86-0.52,2.8c-0.7,5.43-1.09,10.91-2.11,16.28c-7.05,37.07-27.21,65.79-56.96,88.14
					c-23.23,17.45-49.64,26-78.61,26.82c-2.97,0.08-5.68,0.3-8.35,2.26c-42.46,31.16-84.95,62.28-127.63,93.13
					c-5.12,3.7-7.62,7.63-8.59,13.94c-6.43,42.06-41.1,77.82-82.96,86.12c-4.79,0.95-9.65,1.52-14.47,2.27c-5.19,0-10.39,0-15.58,0
					c-2.56-0.36-5.11-0.74-7.67-1.07c-42.27-5.53-78.9-38.67-88.57-80.29c-0.57-2.44-1.69-3.66-3.95-4.56
					C-4843.85,1447.32-4866.97,1438.03-4890.11,1428.77z M-4468.34,1297.6c52.58,0.72,96.4-43.53,96.52-95.99
					c0.12-52.34-43.75-96.53-96.03-96.7c-53.54-0.18-96.87,44.57-97.11,95.93C-4565.21,1253.23-4521.76,1298.18-4468.34,1297.6z
					 M-4729.4,1358.24c1.56,0.67,2.41,1.05,3.26,1.4c10.66,4.35,21.43,8.45,31.96,13.11c24.34,10.76,39.09,36.06,36.69,62.33
					c-3.8,41.49-45.9,67.84-84.8,52.98c-12.37-4.72-24.61-9.77-36.91-14.67c-0.82-0.33-1.66-0.6-2.88-1.03
					c16.44,31.55,56.55,52.06,97.95,36.6c38.37-14.33,58.95-57.34,46.92-97.2C-4648.87,1373.14-4689.55,1349.22-4729.4,1358.24z"/>
				<path class="st9" d="M-4467.82,1278.04c-42.73,0.03-76.89-34.03-77.06-76.85c-0.18-42.77,34.13-76.74,77.07-77.17
					c42.08-0.41,77.39,35.66,76.94,77.02C-4391.35,1243.87-4425.06,1278.01-4467.82,1278.04z"/>
			</g>
		</g>
		<circle class="st10" cx="-4539.89" cy="1300.11" r="362.88"/>
	</g>
	<g>
		<g>
			<path class="st11" d="M-1943.77,3155.34h-591.05v-106.52c0-26.84,21.76-48.6,48.6-48.6h493.85c26.84,0,48.6,21.76,48.6,48.6
				V3155.34z"/>
			<line class="st11" x1="-2534.82" y1="3155.34" x2="-2534.82" y2="3190.11"/>
			<polyline class="st11" points="-1943.77,3155.34 -1943.77,3392.92 -2277.74,3392.92 			"/>
		</g>
		<g>
			<g>
				<g>
					<path class="st9" d="M-2776.46,3564.86c0-32.12,0-64.24,0-96.36c0.65,0.19,1.32,0.33,1.94,0.58
						c27.95,11.28,55.9,22.56,83.83,33.87c1.26,0.51,2.19,0.51,3.42-0.19c13.22-7.57,27.43-10.9,42.64-9.6
						c1.84,0.16,2.94-0.29,4.04-1.87c20.39-29.34,40.86-58.63,61.25-87.97c0.76-1.09,1.24-2.6,1.28-3.94
						c0.33-10.28,1.95-20.32,5.26-30.07c6.38-18.79,17.85-34,33.02-46.53c13.49-11.14,28.84-18.36,46.17-21.15
						c3.84-0.62,7.72-1.04,11.57-1.56c4.39,0,8.78,0,13.18,0c0.67,0.12,1.33,0.31,2,0.36c8.6,0.56,16.97,2.23,25.11,5.02
						c18.61,6.4,33.68,17.83,46.15,32.84c11.18,13.46,18.38,28.81,21.14,46.15c0.61,3.84,1.03,7.72,1.53,11.58
						c0,4.39,0,8.78,0,13.18c-0.13,0.67-0.28,1.33-0.37,2c-0.5,3.87-0.78,7.79-1.51,11.62c-5.03,26.46-19.42,46.96-40.65,62.91
						c-16.58,12.45-35.43,18.56-56.11,19.14c-2.12,0.06-4.05,0.21-5.96,1.61c-30.31,22.24-60.63,44.45-91.09,66.47
						c-3.66,2.64-5.44,5.44-6.13,9.95c-4.59,30.02-29.34,55.54-59.21,61.46c-3.42,0.68-6.88,1.09-10.33,1.62c-3.71,0-7.41,0-11.12,0
						c-1.82-0.26-3.65-0.53-5.47-0.77c-30.17-3.95-56.31-27.6-63.21-57.3c-0.41-1.74-1.2-2.61-2.82-3.26
						C-2743.44,3578.1-2759.94,3571.47-2776.46,3564.86z M-2475.43,3471.25c37.53,0.52,68.8-31.07,68.88-68.51
						c0.09-37.36-31.23-68.89-68.54-69.02c-38.21-0.12-69.14,31.81-69.31,68.46C-2544.57,3439.58-2513.56,3471.66-2475.43,3471.25z
						 M-2661.75,3514.53c1.12,0.48,1.72,0.75,2.33,1c7.61,3.11,15.29,6.03,22.81,9.36c17.37,7.68,27.9,25.74,26.19,44.49
						c-2.71,29.61-32.76,48.42-60.52,37.81c-8.83-3.37-17.57-6.98-26.35-10.47c-0.59-0.23-1.19-0.43-2.05-0.74
						c11.73,22.52,40.36,37.15,69.91,26.12c27.38-10.22,42.07-40.92,33.49-69.37C-2604.28,3525.16-2633.32,3508.09-2661.75,3514.53z
						"/>
					<path class="st9" d="M-2475.07,3457.29c-30.5,0.02-54.87-24.29-55-54.85c-0.13-30.52,24.36-54.77,55-55.07
						c30.03-0.3,55.23,25.45,54.91,54.97C-2420.48,3432.9-2444.54,3457.26-2475.07,3457.29z"/>
				</g>
			</g>
			<circle class="st12" cx="-2526.5" cy="3473.04" r="258.99"/>
		</g>
	</g>
	<g>
		<g>
			<path class="st9" d="M-4214.3-329.77c-53.8-17.08-106.89-33.92-159.91-50.76c0-235.85,0-471.34,0-707.6
				c5.5,1.07,10.75,2,15.96,3.11c57.88,12.3,114.63,28.75,171.05,46.42c30.8,9.65,61.4,19.86,90.61,33.79
				c24.49,11.68,47.54,25.56,67.37,44.33c25.16,23.83,40.92,53.05,48.51,86.59c9.33,41.22,11.32,82.89,4.75,124.72
				c-3.8,24.16-11.81,46.85-27.34,66.21c-22.05,27.5-51.35,37.88-85.81,35.25c-20.07-1.53-38.92-7.61-57.18-15.85
				c-3.11-1.4-4.27-2.96-4.27-6.52c0.13-76.91,0.1-153.82,0.09-230.73c0-11.52-0.56-23.01-3.88-34.15
				c-4.42-14.84-13.52-25.02-28.97-28.82c-9.54-2.35-17.38,0.51-22.97,8.62c-5.07,7.35-6.99,15.75-7.68,24.46
				c-0.33,4.12-0.31,8.27-0.31,12.4c-0.01,194.15-0.01,388.3-0.01,582.45C-4214.3-334.06-4214.3-332.26-4214.3-329.77z"/>
			<path class="st9" d="M-4183.78-340.64c0-3.87,0-7.09,0-10.31c0-26.11,0.05-52.22-0.07-78.32c-0.01-2.94,0.84-4.23,3.63-5.22
				c83.64-29.71,167.26-59.48,250.83-89.39c6.64-2.38,12.88-5.86,19.28-8.88c0.8-0.38,1.5-1.01,2.21-1.57
				c9.73-7.65,8.96-15.62-2.21-21.09c-11.28-5.53-23.54-6.72-35.83-7.16c-26.81-0.97-52.49,4.22-77.72,13.35
				c-52.17,18.86-104.61,36.99-156.94,55.42c-0.84,0.3-1.71,0.51-2.98,0.88c-0.07-1.53-0.19-2.87-0.19-4.21
				c-0.01-29.21,0.03-58.42-0.07-87.63c-0.01-2.8,0.55-4.2,3.52-5.21c38.28-13.04,77.59-21.46,117.67-26.31
				c71.54-8.64,141.84-2.41,210.66,18.82c21.91,6.76,43.93,13.62,63.61,26c8.93,5.62,17.13,12.09,22.96,21.06
				c8.47,13.03,8.54,26.24,0.02,39.25c-6.89,10.51-16.88,17.69-27.24,24.37c-19.8,12.77-41.73,20.78-63.75,28.67
				c-100.09,35.85-200.12,71.84-300.18,107.77C-4165.43-347.18-4174.28-344.03-4183.78-340.64z"/>
			<path class="st9" d="M-4405.58-660.17c0,1.69,0,2.96,0,4.23c0,28.17-0.06,56.35,0.09,84.52c0.02,3.18-1.02,4.42-3.89,5.44
				c-52.99,18.86-105.97,37.77-158.89,56.86c-6.39,2.3-12.41,5.66-18.55,8.62c-1.25,0.61-2.35,1.6-3.41,2.53
				c-8.19,7.18-7.48,14.45,2.16,19.6c9.06,4.84,19.03,6.37,29.12,7.21c30.84,2.56,60.35-2.93,89.07-14.18
				c19.94-7.81,40.21-14.74,60.34-22.05c1.08-0.39,2.18-0.69,3.64-1.15c0,27.67,0,55.08,0,83.04c-11.75,1.75-23.56,3.75-35.42,5.24
				c-30.2,3.79-60.53,4.81-90.92,3.11c-42.86-2.39-84.82-9.96-125.84-22.64c-17.25-5.33-34.65-10.3-50.36-19.63
				c-8.27-4.91-15.93-10.56-22.27-17.86c-16.45-18.94-14.45-41.8,5.32-57.29c16.08-12.6,34.07-22.12,52.97-29.48
				c31.96-12.45,64.24-24.11,96.53-35.71c55.12-19.8,110.35-39.29,165.54-58.9C-4408.91-659.15-4407.44-659.57-4405.58-660.17z"/>
		</g>
	</g>
	<g>
		<path class="st9" d="M611.19,985.69c-16.57,0.17-33.09-0.6-49.52-2.71c-32.07-4.12-63.05-12.44-93-24.63
			c-31.86-12.97-61.31-30.16-88.79-50.77c-4.7-3.52-9.1-7.47-13.39-11.5c-9.93-9.32-14.19-20.9-13.58-34.48
			c0.44-9.6,2.47-18.84,5.42-27.93c5.63-17.37,13.85-33.54,23.04-49.24c16.83-28.73,36.61-55.37,57.77-81.01
			c43.02-52.13,90.53-99.88,141.66-144.03c6.54-5.65,13.25-11.15,20.3-16.12c11.01-7.76,9.49-7.75,19.93,0.2
			c8.95,6.83,17.51,14.23,25.82,21.84c43.86,40.13,86.01,81.98,125.12,126.77c25.84,29.59,49.08,61.17,68.74,95.26
			c9.47,16.41,17.83,33.35,23.29,51.59c2.85,9.53,4.72,19.19,4.29,29.22c-0.37,8.71-3.16,16.38-9.06,22.9
			c-5.74,6.35-12.21,11.88-19.03,17.01c-22.8,17.19-47.58,31.04-73.27,43.36c-27.71,13.29-56.69,22.61-86.99,27.73
			c-16.06,2.71-32.2,4.78-48.48,5.58C624.7,985.07,617.94,985.37,611.19,985.69z"/>
		<path class="st9" d="M910.54,835.19c0.34-2.07,0.53-4.18,1.04-6.21c2.81-11.28,2.22-22.63,0.83-33.99
			c-3.74-30.52-13.66-59.18-26.26-87.03c-18.31-40.47-40.04-79.09-63.16-116.96c-31.78-52.05-66.93-101.71-105.57-148.9
			c-0.86-1.05-1.66-2.16-2.56-3.34c0.35-0.5,0.57-0.96,0.91-1.27c20.33-18.62,40.32-37.62,61.96-54.75
			c10.72-8.48,21.76-16.51,33.4-23.69c14.79-9.11,30.47-16.14,47.33-20.61c6.59-1.75,11.82-0.55,16.92,3.91
			c9.94,8.71,18.76,18.45,27.08,28.65c33.03,40.49,55.74,86.31,70.21,136.35c4.07,14.08,7.72,28.28,9.36,42.88
			c1.03,9.21,1.97,18.44,2.51,27.68c1.28,22.04,1.16,44.08,0.07,66.13c-1.12,22.65-5.55,44.69-11.98,66.37
			c-6.16,20.79-12.92,41.37-22.53,60.87c-9.32,18.89-19.9,37.08-31.54,54.64c-2.2,3.31-4.69,6.42-7.04,9.63
			C911.2,835.43,910.87,835.31,910.54,835.19z"/>
		<path class="st9" d="M506.48,438.82c-6.39,7.86-12.56,15.28-18.55,22.85c-55.47,70.07-103.83,144.7-143.53,224.83
			c-10.74,21.68-20.24,43.89-27.17,67.13c-4.74,15.87-8.39,31.98-9.87,48.5c-0.68,7.61-0.96,15.28,0.45,22.86
			c0.45,2.45,1.26,4.83,1.94,7.24c0.36,1.3,0.79,2.57,1.19,3.86c-0.23,0.14-0.47,0.29-0.7,0.43c-1.07-1.27-2.23-2.47-3.2-3.82
			c-23.65-33.03-42.46-68.51-54.43-107.46c-7-22.79-12.01-46.03-15.24-69.64c-1.63-11.91-3.33-23.84-4.05-35.82
			c-0.58-9.59-0.45-19.35,0.62-28.89c2.05-18.28,4.64-36.52,7.63-54.68c3.97-24.07,11.34-47.21,20.61-69.74
			c14.29-34.73,32.54-67.18,56.53-96.19c6.85-8.29,14.6-15.84,21.87-23.79c7.51-8.22,16.17-9.95,26.88-6.64
			c20.01,6.17,38.08,15.87,55.07,27.85c19.5,13.75,37.54,29.28,55.26,45.2c8.58,7.71,17.12,15.46,25.67,23.19
			C504.38,436.92,505.3,437.75,506.48,438.82z"/>
		<path class="st9" d="M420.24,283.95c0.87-1.05,1.22-1.73,1.78-2.1c1.45-0.98,2.94-1.92,4.5-2.72
			c24.32-12.48,49.07-23.92,75.38-31.65c16.71-4.91,33.58-9.16,50.86-11.46c8.56-1.14,17.19-2.01,25.81-2.38
			c13.39-0.58,26.81-0.78,40.21-0.88c37.03-0.28,73.05,5.62,108.11,17.61c21.71,7.43,43.1,15.56,63.23,26.71
			c4.23,2.34,8.32,4.93,12.26,7.9c-1.32,0-2.65,0.11-3.96-0.02c-23.75-2.25-46.99,0.69-69.97,6.62
			c-30.31,7.83-59.17,19.47-87.33,32.99c-9.48,4.55-19.11,8.77-28.62,13.27c-2.62,1.24-4.9,1.07-7.45-0.21
			c-12.43-6.22-24.8-12.59-37.41-18.41c-27.56-12.71-55.98-23.11-85.45-30.52c-14.83-3.73-29.9-4.73-45.11-4.43
			c-4.39,0.09-8.77,0.17-13.16,0.18C422.86,284.45,421.82,284.17,420.24,283.95z"/>
	</g>
</g>
</svg>
