<?xml version="1.0" encoding="utf-8"?>
<!-- Generator: Adobe Illustrator 25.4.1, SVG Export Plug-In . SVG Version: 6.00 Build 0)  -->
<svg version="1.1" id="Layer_1" xmlns="http://www.w3.org/2000/svg" xmlns:xlink="http://www.w3.org/1999/xlink" x="0px" y="0px"
	 viewBox="0 0 1000 1000" style="enable-background:new 0 0 1000 1000;" xml:space="preserve">
<style type="text/css">
	.st0{fill:#77B900;}
</style>
<g>
	<path class="st0" d="M1434.68,129.56c20.87-0.48,42.44-0.46,63.23,1.46c16.15,1.49,35.96,5.49,46.34,19.17
		c4.91,6.47,6.47,14.1,5.41,22.07c-1.78,13.41-11.49,30.54-25.56,34.14c-17.88,4.58-44.77-1.64-63.45-2.48
		c-4.86-0.22-9.73-0.33-14.6-0.34c-4.87-0.01-9.74,0.09-14.6,0.29c-4.86,0.2-9.72,0.51-14.57,0.93c-4.85,0.41-9.69,0.93-14.52,1.55
		c-4.83,0.62-9.64,1.35-14.44,2.18c-4.8,0.83-9.58,1.76-14.33,2.8c-4.76,1.04-9.49,2.17-14.2,3.41c-4.71,1.24-9.39,2.58-14.04,4.02
		c-4.65,1.44-9.27,2.99-13.85,4.63c-4.59,1.64-9.13,3.38-13.64,5.22c-4.51,1.84-8.98,3.77-13.4,5.8c-4.43,2.03-8.8,4.16-13.14,6.38
		c-4.33,2.22-8.62,4.53-12.85,6.94c-4.23,2.4-8.41,4.9-12.54,7.49c-4.12,2.58-8.19,5.26-12.2,8.02c-4.01,2.76-7.96,5.61-11.85,8.54
		c-74.03,55.69-123.83,136.6-136.2,228.76c-12.34,91.86,9.53,182.86,65.74,256.9c58.3,76.78,140.14,124.51,235.79,137.08
		c5.58,0.7,11.17,1.26,16.78,1.69c5.61,0.43,11.22,0.71,16.84,0.86c5.62,0.15,11.24,0.16,16.86,0.03c5.62-0.13,11.23-0.4,16.84-0.8
		c5.61-0.4,11.2-0.95,16.78-1.63c5.58-0.68,11.14-1.5,16.68-2.45c5.54-0.96,11.05-2.05,16.54-3.27c5.49-1.23,10.94-2.59,16.36-4.08
		c5.42-1.5,10.8-3.12,16.14-4.88c5.34-1.76,10.63-3.65,15.88-5.67c5.24-2.02,10.44-4.17,15.57-6.45c5.14-2.28,10.22-4.68,15.24-7.21
		c5.02-2.53,9.98-5.18,14.87-7.95c4.89-2.77,9.71-5.66,14.46-8.67c4.75-3.01,9.42-6.14,14.01-9.38c4.59-3.24,9.11-6.59,13.53-10.05
		c58.5-45.21,108.53-115.71,124.79-188.65c6.59-29.56,7.17-57.79,11.14-87.47c1.54-11.54,5.72-23.06,15.66-29.93
		c6.94-4.8,17.54-7.5,25.9-5.93c10.61,1.99,19.89,8.47,25.93,17.33c3.61,5.29,3.71,8.48,2.49,14.61c1.08,2.73,1.94,4.85,2.27,7.8
		c1.83,16.59-0.54,36.59-2.59,52.99c-0.68,5.24-1.45,10.48-2.33,15.7c-0.87,5.22-1.85,10.41-2.92,15.6
		c-1.07,5.18-2.24,10.34-3.51,15.48c-1.27,5.13-2.63,10.24-4.09,15.33c-1.46,5.09-3.02,10.14-4.67,15.17
		c-1.65,5.02-3.4,10.02-5.24,14.97c-1.84,4.96-3.78,9.88-5.81,14.77c-2.03,4.88-4.16,9.73-6.37,14.53
		c-2.21,4.8-4.52,9.57-6.91,14.28c-2.39,4.72-4.88,9.39-7.45,14.01c-2.57,4.62-5.23,9.2-7.97,13.72c-2.75,4.52-5.57,8.99-8.48,13.41
		c-2.91,4.41-5.91,8.77-8.99,13.07c-3.08,4.3-6.24,8.55-9.48,12.72c-3.24,4.18-6.56,8.3-9.96,12.36c-3.4,4.05-6.87,8.04-10.41,11.97
		c-2.32,2.59-4.68,5.14-7.06,7.67c-2.38,2.53-4.8,5.03-7.24,7.49c-2.45,2.47-4.93,4.9-7.44,7.31c-2.51,2.4-5.04,4.78-7.61,7.12
		c-2.57,2.34-5.16,4.65-7.78,6.93c-2.63,2.27-5.28,4.52-7.96,6.73c-2.68,2.21-5.39,4.39-8.13,6.53c-2.73,2.14-5.5,4.25-8.29,6.33
		c-2.79,2.07-5.6,4.11-8.44,6.11c-2.84,2-5.7,3.97-8.59,5.9c-2.89,1.93-5.8,3.83-8.74,5.69c-2.93,1.86-5.89,3.68-8.87,5.47
		c-2.98,1.79-5.98,3.53-9.01,5.24c-3.03,1.71-6.07,3.39-9.14,5.02c-3.07,1.64-6.15,3.23-9.26,4.79c-3.11,1.56-6.23,3.08-9.38,4.56
		c-3.14,1.48-6.3,2.92-9.48,4.32c-3.18,1.4-6.38,2.76-9.59,4.09c-3.22,1.32-6.45,2.6-9.69,3.84c-3.25,1.24-6.51,2.44-9.78,3.6
		c-3.28,1.16-6.57,2.28-9.87,3.35c-3.3,1.08-6.62,2.11-9.95,3.11c-3.33,0.99-6.67,1.94-10.02,2.86c-3.35,0.91-6.72,1.78-10.09,2.61
		c-3.37,0.82-6.76,1.61-10.16,2.35c-3.39,0.74-6.8,1.44-10.21,2.1c-3.41,0.66-6.83,1.27-10.26,1.84c-3.43,0.57-6.86,1.1-10.3,1.59
		c-3.44,0.49-6.89,0.93-10.34,1.33c-3.45,0.4-6.91,0.76-10.37,1.08c-3.46,0.31-6.92,0.58-10.39,0.81
		c-3.47,0.23-6.94,0.41-10.41,0.55c-3.48,0.17-6.96,0.29-10.44,0.36c-3.48,0.08-6.97,0.11-10.45,0.1
		c-3.48-0.01-6.97-0.06-10.45-0.16c-3.48-0.1-6.96-0.24-10.44-0.42c-3.48-0.18-6.96-0.41-10.43-0.68c-3.47-0.27-6.94-0.58-10.4-0.94
		c-3.47-0.36-6.93-0.76-10.38-1.2c-3.45-0.44-6.9-0.93-10.35-1.46c-3.44-0.53-6.88-1.1-10.31-1.71c-3.43-0.61-6.85-1.27-10.26-1.97
		c-3.41-0.7-6.81-1.44-10.21-2.23c-3.39-0.78-6.78-1.61-10.15-2.48c-3.37-0.87-6.73-1.78-10.08-2.73
		c-3.35-0.95-6.69-1.95-10.02-2.98c-3.32-1.04-6.63-2.11-9.93-3.23c-3.3-1.12-6.58-2.28-9.85-3.48c-3.27-1.2-6.53-2.44-9.76-3.73
		c-3.24-1.28-6.46-2.61-9.66-3.97c-3.21-1.36-6.4-2.76-9.57-4.21c-3.17-1.44-6.33-2.92-9.46-4.44c-3.13-1.52-6.24-3.08-9.34-4.68
		c-3.1-1.6-6.17-3.24-9.22-4.91c-3.05-1.68-6.09-3.39-9.1-5.14c-3.01-1.75-6-3.54-8.96-5.36c-2.97-1.82-5.91-3.68-8.83-5.58
		c-2.92-1.9-5.82-3.84-8.69-5.81c-2.87-1.97-5.72-3.98-8.54-6.02c-2.82-2.04-5.62-4.12-8.39-6.23c-2.77-2.11-5.52-4.26-8.23-6.44
		c-2.72-2.18-5.4-4.39-8.07-6.64c-2.66-2.25-5.29-4.53-7.9-6.84c-2.6-2.31-5.18-4.66-7.72-7.03
		c-79.14-73.13-130.42-180-134.14-288.13c-3.95-114.92,34.45-224.6,113.56-308.88C1218.72,179.25,1322.24,133.2,1434.68,129.56z"/>
	<path class="st0" d="M1893.82,44.68c7.37-0.64,14.98-1.53,22.39-1.31c19.16,0.56,39.19,11.42,51.65,25.5
		c1.56,1.76,3.03,3.6,4.4,5.51c1.38,1.91,2.66,3.88,3.84,5.92c1.18,2.04,2.25,4.13,3.23,6.27c0.97,2.14,1.84,4.33,2.59,6.56
		c0.76,2.23,1.4,4.49,1.93,6.78c0.53,2.29,0.95,4.61,1.25,6.94c0.3,2.33,0.48,4.68,0.55,7.03c0.07,2.35,0.02,4.7-0.14,7.05
		c-0.89,13.73-5.26,26.95-13.29,38.11c-25.76,35.81-58.2,68.81-87.06,102.27l-177.03,204.69l-118.42,137.85
		c-22.79,26.73-45.84,57.71-71.93,81.13c-16.22,14.56-33.86,23.05-56.15,21.23c-13.85-1.13-26.13-5.74-37.49-13.69
		c-27.26-19.05-75.06-82.11-99.64-110.43c-20.32-24.42-57.95-60.46-72.09-86.26c-5.77-10.53-8.63-22.62-8.72-34.6
		c-0.01-2.5,0.1-4.99,0.35-7.49c0.24-2.49,0.6-4.96,1.09-7.41c0.49-2.45,1.1-4.87,1.83-7.27c0.73-2.39,1.58-4.74,2.55-7.05
		c0.97-2.3,2.05-4.56,3.24-6.75c1.19-2.2,2.49-4.33,3.9-6.4c1.41-2.07,2.91-4.06,4.52-5.97c1.61-1.91,3.31-3.75,5.1-5.49
		c1.78-1.78,3.65-3.45,5.6-5.03c1.96-1.58,3.99-3.06,6.09-4.43c2.11-1.37,4.28-2.63,6.52-3.78c2.24-1.14,4.53-2.17,6.88-3.08
		c2.35-0.91,4.73-1.69,7.16-2.35c2.43-0.66,4.88-1.19,7.36-1.59c2.48-0.4,4.98-0.68,7.49-0.83c2.51-0.14,5.02-0.16,7.53-0.04
		c12.63,0.55,24.2,3.85,34.89,10.67c32.07,20.48,82.69,90.02,112.16,121.78c17.8-27.31,42.46-52.04,63.83-76.72l117.96-136.27
		l139.9-161.93c23.98-27.7,47.01-58.4,73.68-83.4C1872.19,52.08,1882.61,48.69,1893.82,44.68z"/>
</g>
<g>
	<g>
		<path class="st0" d="M908.27,251.4c-5.76-60.51-34.75-115.41-81.65-154.59C779.6,57.52,720.07,38.85,659,44.24
			c-61.06,5.4-116.4,34.24-155.8,81.2c-28.14,33.54-46.05,74.11-51.78,117.31c-5.57,42.04,0.52,84.72,17.62,123.44
			c0.95,2.15,0.6,4.58-0.89,6.37L95.6,816.57l-4.89,107.78c-0.44,9.7,3.57,18.83,11,25.07c5.65,4.75,12.61,7.26,19.79,7.26
			c2.27,0,4.55-0.24,6.82-0.75l105.3-23.52l16.27-19.38c9.75-11.62,12.1-27.56,6.15-41.6c-3.12-7.34,0.88-15.59,5.25-20.43
			c4.37-4.83,11.62-9.18,18.91-6.92c13.28,4.11,27.75-0.24,36.87-11.12l0.66-0.78c7.17-8.56,9.77-20.11,6.96-30.92l-9.29-35.58
			c-0.91-3.53-0.07-7.3,2.27-10.09l7.78-9.26l16.65,13.78c11.75,9.73,29.27,8.14,39.08-3.54l14.28-17.02
			c5.63-6.7,7.77-15.81,5.74-24.37c-3.12-13.12-5.22-30.52,2.38-38.82c6.3-6.87,20.5-8.9,41.08-5.88l0.65,0.09l0.59,0.03
			c0.1,0.01,0.21,0.02,0.31,0.03c14.39,1.02,28.55-4.14,38.86-14.18c10.24-9.98,15.73-23.9,15.05-38.2l-0.41-8.77l-4.67-57.14
			l47.67-4.45c9.5-0.88,18.1-5.39,24.22-12.7l34.82-41.48c1.59-1.9,4.17-2.63,6.57-1.84c43.52,14.1,89.86,14.93,134,2.37
			c45.27-12.87,85.02-39.02,114.94-75.62C895.91,371.3,914.03,311.92,908.27,251.4z M835.38,400.73
			c-26.25,32.12-61.11,55.06-100.79,66.33c-38.75,11.02-79.41,10.31-117.58-2.07c-13.39-4.35-27.88-0.2-36.92,10.56l-34.81,41.48
			c-1.32,1.57-3.16,2.54-5.21,2.73l-50,4.67c-14.03,1.31-24.53,13.82-23.38,27.87l4.8,58.75l0.41,8.52
			c0.29,6.32-2.03,12.23-6.56,16.63c-4.54,4.42-10.8,6.7-17.16,6.23c-30.83-4.42-52.23,0.42-65.44,14.83
			c-12.79,13.97-15.84,35.59-9.06,64.28l-13.89,16.55l-19.44-16.08c-10.21-8.46-25.46-7.08-33.98,3.09l-10.34,12.32
			c-8.21,9.78-11.18,23.01-7.95,35.36l9.28,35.59c0.52,1.97,0.04,4.08-1.26,5.63l-0.67,0.79c-1.76,2.1-4.52,3.02-6.87,2.29
			c-16.73-5.18-35.19,0.56-48.21,14.97c-13.1,14.49-17.14,34.27-10.3,50.39c1.79,4.22,1.1,8.97-1.79,12.42l-10.12,12.06
			l-95.97,21.44c-1.06,0.24-1.84-0.18-2.3-0.56c-0.46-0.39-1-1.07-0.95-2.16l4.45-98.24l366.4-436.67
			c8.47-10.09,10.42-23.86,5.09-35.93c-15-33.97-20.35-71.42-15.46-108.32c5.03-37.88,20.73-73.45,45.42-102.87
			c34.56-41.19,83.1-66.48,136.67-71.23c53.55-4.73,105.77,11.64,147.03,46.11c41.14,34.39,66.59,82.54,71.64,135.6
			C885.22,307.14,869.31,359.23,835.38,400.73z"/>
		<path class="st0" d="M794.08,179.85c-4.41-8.46-10.5-16.06-18.03-22.37c-15.06-12.64-34.14-18.66-53.74-16.95
			c-19.59,1.71-37.34,10.96-49.98,26.02c-26.1,31.1-22.03,77.64,9.07,103.73c13.77,11.56,30.56,17.2,47.27,17.2
			c21.03,0,41.92-8.94,56.46-26.27c12.64-15.06,18.66-34.15,16.94-53.74C801.22,197.66,798.48,188.33,794.08,179.85z M763.5,243.05
			c-16.09,19.17-44.78,21.68-63.95,5.59c-19.17-16.09-21.68-44.78-5.59-63.95c7.79-9.28,18.73-14.98,30.81-16.03
			c1.36-0.12,2.69-0.18,4.03-0.18c5.33,0,10.54,0.92,15.46,2.71c4.91,1.8,9.53,4.45,13.65,7.92c9.29,7.79,14.98,18.73,16.04,30.81
			C775.01,222,771.3,233.76,763.5,243.05z"/>
	</g>
</g>
</svg>
